# Blender v2.90.1 OBJ File: ''
# www.blender.org
mtllib low_BFG10000.mtl
o Cylinder.1
v 334.285797 -384.567383 -193.000061
v 386.000000 -384.567413 -0.000063
v 0.000000 -384.567413 -0.000063
v 334.285797 79.432625 -192.999985
v 386.000000 79.432594 0.000013
v 0.000000 79.432594 0.000013
v 193.000000 -384.567352 -334.285858
v 193.000000 79.432648 -334.285797
v 0.000000 -384.567352 -386.000061
v 0.000000 79.432655 -386.000000
v -193.000000 -384.567352 -334.285858
v -193.000000 79.432648 -334.285797
v -334.285797 -384.567383 -193.000061
v -334.285797 79.432625 -192.999985
v -386.000000 -384.567413 -0.000063
v -386.000000 79.432594 0.000013
v -334.285797 -384.567444 192.999939
v -334.285797 79.432564 193.000015
v -193.000000 -384.567474 334.285736
v -193.000000 79.432541 334.285797
v 0.000000 -384.567474 385.999939
v 0.000000 79.432533 386.000000
v 193.000000 -384.567474 334.285736
v 193.000000 79.432541 334.285797
v 334.285797 -384.567444 192.999939
v 334.285797 79.432564 193.000015
v 517.017151 -616.790344 -298.500092
v 597.000000 -616.790405 -0.000100
v 0.000000 -616.790405 -0.000100
v 517.017151 -313.790314 -298.500061
v 597.000000 -313.790375 -0.000051
v 0.000000 -313.790375 -0.000051
v 298.500000 -616.790344 -517.017273
v 298.500000 -313.790283 -517.017212
v 0.000000 -616.790283 -597.000122
v 0.000000 -313.790283 -597.000061
v -298.500000 -616.790344 -517.017273
v -298.500000 -313.790283 -517.017212
v -517.017151 -616.790344 -298.500092
v -517.017151 -313.790314 -298.500061
v -597.000000 -616.790405 -0.000100
v -597.000000 -313.790375 -0.000051
v -517.017151 -616.790466 298.499908
v -517.017151 -313.790436 298.499939
v -298.500000 -616.790466 517.017029
v -298.500000 -313.790466 517.017090
v 0.000000 -616.790527 596.999878
v 0.000000 -313.790466 596.999939
v 298.500000 -616.790466 517.017029
v 298.500000 -313.790466 517.017090
v 517.017151 -616.790466 298.499908
v 517.017151 -313.790436 298.499939
v 110.681999 217.136154 1263.831299
v 233.760391 152.539642 1263.831299
v 264.000000 275.226532 1263.831299
v 125.000000 275.226532 1263.831299
v 233.760391 152.539993 -917.168701
v 264.000000 275.226898 -917.168640
v 110.681999 217.136505 -917.168640
v 125.000000 275.226898 -917.168640
v 71.008095 172.353577 1263.831299
v 149.969086 57.958809 1263.831299
v 149.969086 57.959164 -917.168701
v 71.008095 172.353928 -917.168701
v 15.067085 151.137939 1263.831299
v 31.821684 13.151405 1263.831299
v 31.821684 13.151761 -917.168701
v 15.067085 151.138290 -917.168701
v -44.325611 158.349518 1263.831299
v -93.615692 28.382259 1263.831299
v -93.615692 28.382614 -917.168701
v -44.325611 158.349869 -917.168701
v -93.563843 192.336227 1263.831299
v -197.606842 100.162163 1263.831299
v -197.606842 100.162521 -917.168701
v -93.563843 192.336578 -917.168640
v -121.367729 245.312103 1263.831299
v -256.328644 212.047226 1263.831299
v -256.328644 212.047577 -917.168640
v -121.367729 245.312454 -917.168640
v -121.367729 305.140991 1263.831299
v -256.328644 338.405884 1263.831299
v -256.328644 338.406250 -917.168640
v -121.367729 305.141357 -917.168640
v -93.563843 358.116882 1263.831299
v -197.606842 450.290924 1263.831421
v -197.606842 450.291290 -917.168640
v -93.563843 358.117249 -917.168640
v -44.325611 392.103577 1263.831421
v -93.615692 522.070862 1263.831421
v -93.615692 522.071167 -917.168640
v -44.325611 392.103943 -917.168640
v 15.067085 399.315155 1263.831421
v 31.821684 537.301697 1263.831421
v 31.821684 537.302002 -917.168640
v 15.067085 399.315521 -917.168640
v 71.008095 378.099518 1263.831421
v 149.969086 492.494293 1263.831421
v 149.969086 492.494659 -917.168640
v 71.008095 378.099884 -917.168640
v 110.681999 333.316925 1263.831299
v 233.760391 397.913452 1263.831421
v 233.760391 397.913818 -917.168640
v 110.681999 333.317291 -917.168640
vt 0.066987 0.750000
vt 0.000000 0.500000
vt 0.500000 0.500000
vt 0.083333 0.000000
vt 0.083333 1.000000
vt 0.000000 1.000000
vt 0.000000 0.000000
vt 0.933013 0.750000
vt 0.500000 0.500000
vt 1.000000 0.500000
vt 0.250000 0.933013
vt 0.166667 0.000000
vt 0.166667 1.000000
vt 0.750000 0.933013
vt 0.500000 1.000000
vt 0.250000 0.000000
vt 0.250000 1.000000
vt 0.500000 1.000000
vt 0.750000 0.933013
vt 0.333333 0.000000
vt 0.333333 1.000000
vt 0.250000 0.933013
vt 0.933013 0.750000
vt 0.416667 0.000000
vt 0.416667 1.000000
vt 0.066987 0.750000
vt 1.000000 0.500000
vt 0.500000 0.000000
vt 0.500000 1.000000
vt 0.000000 0.500000
vt 0.933013 0.250000
vt 0.583333 0.000000
vt 0.583333 1.000000
vt 0.066987 0.250000
vt 0.750000 0.066987
vt 0.666667 0.000000
vt 0.666667 1.000000
vt 0.250000 0.066987
vt 0.500000 0.000000
vt 0.750000 0.000000
vt 0.750000 1.000000
vt 0.500000 0.000000
vt 0.250000 0.066987
vt 0.833333 0.000000
vt 0.833333 1.000000
vt 0.750000 0.066987
vt 0.066987 0.250000
vt 0.916667 0.000000
vt 0.916667 1.000000
vt 0.933013 0.250000
vt 1.000000 0.000000
vt 1.000000 1.000000
vt 0.066987 0.750000
vt 0.000000 0.500000
vt 0.500000 0.500000
vt 0.083333 0.000000
vt 0.083333 1.000000
vt 0.000000 1.000000
vt 0.000000 0.000000
vt 0.933013 0.750000
vt 0.500000 0.500000
vt 1.000000 0.500000
vt 0.250000 0.933013
vt 0.166667 0.000000
vt 0.166667 1.000000
vt 0.750000 0.933013
vt 0.500000 1.000000
vt 0.250000 0.000000
vt 0.250000 1.000000
vt 0.500000 1.000000
vt 0.750000 0.933013
vt 0.333333 0.000000
vt 0.333333 1.000000
vt 0.250000 0.933013
vt 0.933013 0.750000
vt 0.416667 0.000000
vt 0.416667 1.000000
vt 0.066987 0.750000
vt 1.000000 0.500000
vt 0.500000 0.000000
vt 0.500000 1.000000
vt 0.000000 0.500000
vt 0.933013 0.250000
vt 0.583333 0.000000
vt 0.583333 1.000000
vt 0.066987 0.250000
vt 0.750000 0.066987
vt 0.666667 0.000000
vt 0.666667 1.000000
vt 0.250000 0.066987
vt 0.500000 0.000000
vt 0.750000 0.000000
vt 0.750000 1.000000
vt 0.500000 0.000000
vt 0.250000 0.066987
vt 0.833333 0.000000
vt 0.833333 1.000000
vt 0.750000 0.066987
vt 0.066987 0.250000
vt 0.916667 0.000000
vt 0.916667 1.000000
vt 0.933013 0.250000
vt 1.000000 0.000000
vt 1.000000 1.000000
vt 0.290375 0.610020
vt 0.057272 0.732362
vt 0.000000 0.500000
vt 0.263258 0.500000
vt 0.076923 0.000000
vt 0.076923 1.000000
vt 0.000000 1.000000
vt 0.000000 0.000000
vt 0.942728 0.732362
vt 0.709625 0.610020
vt 0.736742 0.500000
vt 1.000000 0.500000
vt 0.076923 0.000000
vt 0.076923 1.000000
vt 0.000000 1.000000
vt 0.000000 0.000000
vt 0.365515 0.694835
vt 0.215968 0.911492
vt 0.153846 0.000000
vt 0.153846 1.000000
vt 0.784032 0.911492
vt 0.634485 0.694835
vt 0.153846 0.000000
vt 0.153846 1.000000
vt 0.471464 0.735016
vt 0.439732 0.996354
vt 0.230769 0.000000
vt 0.230769 1.000000
vt 0.560268 0.996354
vt 0.528536 0.735016
vt 0.230769 0.000000
vt 0.230769 1.000000
vt 0.583950 0.721358
vt 0.677302 0.967508
vt 0.307692 0.000000
vt 0.307692 1.000000
vt 0.322698 0.967508
vt 0.416050 0.721358
vt 0.307692 0.000000
vt 0.307692 1.000000
vt 0.677204 0.656989
vt 0.874255 0.831561
vt 0.384615 0.000000
vt 0.384615 1.000000
vt 0.125745 0.831561
vt 0.322796 0.656989
vt 0.384615 0.000000
vt 0.384615 1.000000
vt 0.729863 0.556656
vt 0.985471 0.619658
vt 0.461538 0.000000
vt 0.461538 1.000000
vt 0.014529 0.619658
vt 0.270137 0.556656
vt 0.461538 0.000000
vt 0.461538 1.000000
vt 0.729863 0.443344
vt 0.985471 0.380342
vt 0.538462 0.000000
vt 0.538462 1.000000
vt 0.014529 0.380342
vt 0.270137 0.443344
vt 0.538462 0.000000
vt 0.538462 1.000000
vt 0.677204 0.343011
vt 0.874255 0.168439
vt 0.615385 0.000000
vt 0.615385 1.000000
vt 0.125745 0.168439
vt 0.322796 0.343011
vt 0.615385 0.000000
vt 0.615385 1.000000
vt 0.583950 0.278642
vt 0.677302 0.032492
vt 0.692308 0.000000
vt 0.692308 1.000000
vt 0.322698 0.032492
vt 0.416050 0.278642
vt 0.692308 0.000000
vt 0.692308 1.000000
vt 0.471464 0.264984
vt 0.439732 0.003646
vt 0.769231 0.000000
vt 0.769231 1.000000
vt 0.560268 0.003646
vt 0.528536 0.264984
vt 0.769231 0.000000
vt 0.769231 1.000000
vt 0.365515 0.305165
vt 0.215968 0.088508
vt 0.846154 0.000000
vt 0.846154 1.000000
vt 0.784032 0.088508
vt 0.634485 0.305165
vt 0.846154 0.000000
vt 0.846154 1.000000
vt 0.290375 0.389980
vt 0.057272 0.267638
vt 0.923077 0.000000
vt 0.923077 1.000000
vt 0.942728 0.267638
vt 0.709625 0.389980
vt 0.923077 0.000000
vt 0.923077 1.000000
vt 1.000000 0.000000
vt 1.000000 1.000000
vt 1.000000 0.000000
vt 1.000000 1.000000
vn -0.0000 -1.0000 0.0000
vn 0.8660 0.0000 -0.5000
vn 1.0000 -0.0000 0.0000
vn 0.0000 1.0000 0.0000
vn 0.5000 0.0000 -0.8660
vn 0.0000 0.0000 -1.0000
vn -0.5000 0.0000 -0.8660
vn -0.8660 0.0000 -0.5000
vn -1.0000 0.0000 0.0000
vn -0.8660 -0.0000 0.5000
vn -0.5000 -0.0000 0.8660
vn 0.0000 -0.0000 1.0000
vn 0.5000 -0.0000 0.8660
vn 0.8660 -0.0000 0.5000
vn 0.8855 -0.4647 -0.0000
vn -0.8855 0.4647 0.0000
vn 0.5681 -0.8230 -0.0000
vn -0.5681 0.8230 0.0000
vn 0.1205 -0.9927 -0.0000
vn -0.1205 0.9927 0.0000
vn -0.3546 -0.9350 -0.0000
vn 0.3546 0.9350 0.0000
vn -0.7485 -0.6631 -0.0000
vn 0.7485 0.6631 0.0000
vn -0.9709 -0.2393 -0.0000
vn 0.9709 0.2393 0.0000
vn -0.9709 0.2393 0.0000
vn 0.9709 -0.2393 -0.0000
vn -0.7485 0.6631 0.0000
vn 0.7485 -0.6631 -0.0000
vn -0.3546 0.9350 0.0000
vn 0.3546 -0.9350 -0.0000
vn 0.1205 0.9927 0.0000
vn -0.1205 -0.9927 -0.0000
vn 0.5681 0.8230 0.0000
vn -0.5681 -0.8230 -0.0000
vn 0.8855 0.4647 0.0000
vn -0.8855 -0.4647 -0.0000
usemtl default
s 1
f 1/1/1 2/2/1 3/3/1
f 1/4/2 4/5/2 5/6/3 2/7/3
f 4/8/4 6/9/4 5/10/4
f 7/11/1 1/1/1 3/3/1
f 7/12/5 8/13/5 4/5/2 1/4/2
f 8/14/4 6/9/4 4/8/4
f 9/15/1 7/11/1 3/3/1
f 9/16/6 10/17/6 8/13/5 7/12/5
f 10/18/4 6/9/4 8/14/4
f 11/19/1 9/15/1 3/3/1
f 11/20/7 12/21/7 10/17/6 9/16/6
f 12/22/4 6/9/4 10/18/4
f 13/23/1 11/19/1 3/3/1
f 13/24/8 14/25/8 12/21/7 11/20/7
f 14/26/4 6/9/4 12/22/4
f 15/27/1 13/23/1 3/3/1
f 15/28/9 16/29/9 14/25/8 13/24/8
f 16/30/4 6/9/4 14/26/4
f 17/31/1 15/27/1 3/3/1
f 17/32/10 18/33/10 16/29/9 15/28/9
f 18/34/4 6/9/4 16/30/4
f 19/35/1 17/31/1 3/3/1
f 19/36/11 20/37/11 18/33/10 17/32/10
f 20/38/4 6/9/4 18/34/4
f 21/39/1 19/35/1 3/3/1
f 21/40/12 22/41/12 20/37/11 19/36/11
f 22/42/4 6/9/4 20/38/4
f 23/43/1 21/39/1 3/3/1
f 23/44/13 24/45/13 22/41/12 21/40/12
f 24/46/4 6/9/4 22/42/4
f 25/47/1 23/43/1 3/3/1
f 25/48/14 26/49/14 24/45/13 23/44/13
f 26/50/4 6/9/4 24/46/4
f 2/2/1 25/47/1 3/3/1
f 2/51/3 5/52/3 26/49/14 25/48/14
f 5/10/4 6/9/4 26/50/4
f 27/53/1 28/54/1 29/55/1
f 27/56/2 30/57/2 31/58/3 28/59/3
f 30/60/4 32/61/4 31/62/4
f 33/63/1 27/53/1 29/55/1
f 33/64/5 34/65/5 30/57/2 27/56/2
f 34/66/4 32/61/4 30/60/4
f 35/67/1 33/63/1 29/55/1
f 35/68/6 36/69/6 34/65/5 33/64/5
f 36/70/4 32/61/4 34/66/4
f 37/71/1 35/67/1 29/55/1
f 37/72/7 38/73/7 36/69/6 35/68/6
f 38/74/4 32/61/4 36/70/4
f 39/75/1 37/71/1 29/55/1
f 39/76/8 40/77/8 38/73/7 37/72/7
f 40/78/4 32/61/4 38/74/4
f 41/79/1 39/75/1 29/55/1
f 41/80/9 42/81/9 40/77/8 39/76/8
f 42/82/4 32/61/4 40/78/4
f 43/83/1 41/79/1 29/55/1
f 43/84/10 44/85/10 42/81/9 41/80/9
f 44/86/4 32/61/4 42/82/4
f 45/87/1 43/83/1 29/55/1
f 45/88/11 46/89/11 44/85/10 43/84/10
f 46/90/4 32/61/4 44/86/4
f 47/91/1 45/87/1 29/55/1
f 47/92/12 48/93/12 46/89/11 45/88/11
f 48/94/4 32/61/4 46/90/4
f 49/95/1 47/91/1 29/55/1
f 49/96/13 50/97/13 48/93/12 47/92/12
f 50/98/4 32/61/4 48/94/4
f 51/99/1 49/95/1 29/55/1
f 51/100/14 52/101/14 50/97/13 49/96/13
f 52/102/4 32/61/4 50/98/4
f 28/54/1 51/99/1 29/55/1
f 28/103/3 31/104/3 52/101/14 51/100/14
f 31/62/4 32/61/4 52/102/4
f 53/105/12 54/106/12 55/107/12 56/108/12
f 54/109/15 57/110/15 58/111/3 55/112/3
f 57/113/6 59/114/6 60/115/6 58/116/6
f 59/117/16 53/118/16 56/119/9 60/120/9
f 61/121/12 62/122/12 54/106/12 53/105/12
f 62/123/17 63/124/17 57/110/15 54/109/15
f 63/125/6 64/126/6 59/114/6 57/113/6
f 64/127/18 61/128/18 53/118/16 59/117/16
f 65/129/12 66/130/12 62/122/12 61/121/12
f 66/131/19 67/132/19 63/124/17 62/123/17
f 67/133/6 68/134/6 64/126/6 63/125/6
f 68/135/20 65/136/20 61/128/18 64/127/18
f 69/137/12 70/138/12 66/130/12 65/129/12
f 70/139/21 71/140/21 67/132/19 66/131/19
f 71/141/6 72/142/6 68/134/6 67/133/6
f 72/143/22 69/144/22 65/136/20 68/135/20
f 73/145/12 74/146/12 70/138/12 69/137/12
f 74/147/23 75/148/23 71/140/21 70/139/21
f 75/149/6 76/150/6 72/142/6 71/141/6
f 76/151/24 73/152/24 69/144/22 72/143/22
f 77/153/12 78/154/12 74/146/12 73/145/12
f 78/155/25 79/156/25 75/148/23 74/147/23
f 79/157/6 80/158/6 76/150/6 75/149/6
f 80/159/26 77/160/26 73/152/24 76/151/24
f 81/161/12 82/162/12 78/154/12 77/153/12
f 82/163/27 83/164/27 79/156/25 78/155/25
f 83/165/6 84/166/6 80/158/6 79/157/6
f 84/167/28 81/168/28 77/160/26 80/159/26
f 85/169/12 86/170/12 82/162/12 81/161/12
f 86/171/29 87/172/29 83/164/27 82/163/27
f 87/173/6 88/174/6 84/166/6 83/165/6
f 88/175/30 85/176/30 81/168/28 84/167/28
f 89/177/12 90/178/12 86/170/12 85/169/12
f 90/179/31 91/180/31 87/172/29 86/171/29
f 91/181/6 92/182/6 88/174/6 87/173/6
f 92/183/32 89/184/32 85/176/30 88/175/30
f 93/185/12 94/186/12 90/178/12 89/177/12
f 94/187/33 95/188/33 91/180/31 90/179/31
f 95/189/6 96/190/6 92/182/6 91/181/6
f 96/191/34 93/192/34 89/184/32 92/183/32
f 97/193/12 98/194/12 94/186/12 93/185/12
f 98/195/35 99/196/35 95/188/33 94/187/33
f 99/197/6 100/198/6 96/190/6 95/189/6
f 100/199/36 97/200/36 93/192/34 96/191/34
f 101/201/12 102/202/12 98/194/12 97/193/12
f 102/203/37 103/204/37 99/196/35 98/195/35
f 103/205/6 104/206/6 100/198/6 99/197/6
f 104/207/38 101/208/38 97/200/36 100/199/36
f 56/108/12 55/107/12 102/202/12 101/201/12
f 55/209/3 58/210/3 103/204/37 102/203/37
f 58/116/6 60/115/6 104/206/6 103/205/6
f 60/211/9 56/212/9 101/208/38 104/207/38
